<svg width="40" height="40" viewBox="0 0 40 40" fill="none" xmlns="http://www.w3.org/2000/svg">
<path d="M0 20C0 8.95105 8.95105 0 20 0C31.049 0 40 8.95105 40 20C40 31.049 31.049 40 20 40C8.95105 39.9767 0 31.0256 0 20Z" fill="#5865F2"/>
<path d="M28.9977 11.8646C27.2961 11.0954 25.5245 10.5359 23.683 10.2329C23.4499 10.6525 23.1935 11.1886 23.007 11.6315C21.049 11.3285 19.0676 11.3285 17.1096 11.6315C16.8998 11.142 16.6667 10.6758 16.4103 10.2329C14.5688 10.5359 12.7739 11.0954 11.0956 11.8879C7.73896 16.8996 6.82987 21.7714 7.27276 26.5965C9.25411 28.0651 11.4453 29.184 13.7996 29.8833C14.3357 29.1606 14.8019 28.4147 15.1982 27.6222C14.4289 27.3425 13.7063 26.9928 13.007 26.5732C13.1935 26.4334 13.3567 26.2935 13.5432 26.1537C17.669 28.1117 22.4709 28.1117 26.5968 26.1537C26.7832 26.2935 26.9464 26.4334 27.1329 26.5732C26.4336 26.9928 25.6877 27.3425 24.9184 27.6222C25.3147 28.4147 25.7809 29.1606 26.317 29.8833C28.6714 29.1606 30.8858 28.0651 32.8438 26.5965C33.3567 21.0021 31.9114 16.1537 28.9977 11.8646ZM15.7576 23.6129C14.4756 23.6129 13.4499 22.4474 13.4499 21.0254C13.4499 19.6035 14.4756 18.4147 15.7576 18.4147C17.063 18.4147 18.0886 19.5802 18.0886 21.0254C18.0653 22.4474 17.063 23.6129 15.7576 23.6129ZM24.3357 23.6129C23.0536 23.6129 22.028 22.4474 22.028 21.0254C22.028 19.6035 23.0536 18.4147 24.3357 18.4147C25.6411 18.4147 26.6667 19.5802 26.6434 21.0254C26.6201 22.4707 25.6177 23.6129 24.3357 23.6129Z" fill="white"/>
</svg>
