<svg width="40" height="40" viewBox="0 0 40 40" fill="none" xmlns="http://www.w3.org/2000/svg">
<circle cx="20" cy="20" r="20" fill="#1DA1F2"/>
<path d="M33.3333 11.8985C32.3416 12.3335 31.285 12.6218 30.1833 12.7618C31.3166 12.0852 32.1816 11.0218 32.5883 9.74016C31.5316 10.3702 30.365 10.8152 29.1216 11.0635C28.1183 9.99516 26.6883 9.3335 25.1283 9.3335C22.1016 9.3335 19.665 11.7902 19.665 14.8018C19.665 15.2352 19.7016 15.6518 19.7916 16.0485C15.2466 15.8268 11.225 13.6485 8.52329 10.3302C8.05163 11.1485 7.77496 12.0852 7.77496 13.0935C7.77496 14.9868 8.74996 16.6652 10.2033 17.6368C9.32496 17.6202 8.46329 17.3652 7.73329 16.9635C7.73329 16.9802 7.73329 17.0018 7.73329 17.0235C7.73329 19.6802 9.62829 21.8868 12.1133 22.3952C11.6683 22.5168 11.1833 22.5752 10.68 22.5752C10.33 22.5752 9.97663 22.5552 9.64496 22.4818C10.3533 24.6468 12.3633 26.2385 14.7533 26.2902C12.8933 27.7452 10.5316 28.6218 7.97496 28.6218C7.52663 28.6218 7.09663 28.6018 6.66663 28.5468C9.08829 30.1085 11.9583 31.0002 15.0533 31.0002C25.1133 31.0002 30.6133 22.6668 30.6133 15.4435C30.6133 15.2018 30.605 14.9685 30.5933 14.7368C31.6783 13.9668 32.59 13.0052 33.3333 11.8985Z" fill="white"/>
</svg>
